<svg id="visual" viewBox="0 0 900 600" width="900" height="600" xmlns="http://www.w3.org/2000/svg" xmlns:xlink="http://www.w3.org/1999/xlink" version="1.1"><rect x="0" y="0" width="900" height="600" fill="#e689c6"></rect><defs><linearGradient id="grad1_0" x1="33.3%" y1="0%" x2="100%" y2="100%"><stop offset="20%" stop-color="#e689c6" stop-opacity="1"></stop><stop offset="80%" stop-color="#e689c6" stop-opacity="1"></stop></linearGradient></defs><defs><linearGradient id="grad2_0" x1="0%" y1="0%" x2="66.7%" y2="100%"><stop offset="20%" stop-color="#e689c6" stop-opacity="1"></stop><stop offset="80%" stop-color="#e689c6" stop-opacity="1"></stop></linearGradient></defs><g transform="translate(900, 0)"><path d="M0 486.7C-71.6 488.3 -143.2 489.8 -186.3 449.7C-229.3 409.6 -243.8 327.8 -277.2 277.2C-310.6 226.6 -362.9 207.1 -401 166.1C-439 125.1 -462.9 62.5 -486.7 0L0 0Z" fill="#efbddf"></path></g><g transform="translate(0, 600)"><path d="M0 -486.7C64.8 -472.4 129.7 -458.1 175.7 -424.1C221.6 -390 248.8 -336.2 297 -297C345.2 -257.8 414.6 -233.3 449.7 -186.3C484.8 -139.2 485.8 -69.6 486.7 0L0 0Z" fill="#efbddf"></path></g></svg>